<?xml version="1.0" encoding="utf-8"?>
<!-- Generator: Adobe Illustrator 16.0.0, SVG Export Plug-In . SVG Version: 6.00 Build 0)  -->
<!DOCTYPE svg PUBLIC "-//W3C//DTD SVG 1.1//EN" "http://www.w3.org/Graphics/SVG/1.1/DTD/svg11.dtd">
<svg version="1.1" id="Layer_1" xmlns="http://www.w3.org/2000/svg" xmlns:xlink="http://www.w3.org/1999/xlink" x="0px" y="0px"
	 width="446.975px" height="262.045px" viewBox="0 0 446.975 262.045" enable-background="new 0 0 446.975 262.045"
	 xml:space="preserve">
<linearGradient id="SVGID_1_" gradientUnits="userSpaceOnUse" x1="225.3193" y1="255.2986" x2="223.3193" y2="41.2986" gradientTransform="matrix(1 0 0 -1 -0.0449 128.2808)">
	<stop  offset="0" style="stop-color:#1CB6EA"/>
	<stop  offset="1" style="stop-color:#3E23CA"/>
</linearGradient>
<path fill="url(#SVGID_1_)" d="M446.975,64.264c0,35.485-28.775,64.258-64.264,64.258H64.264C28.776,128.521,0,99.75,0,64.264l0,0
	C0,28.771,28.776,0,64.264,0h318.447C418.198,0,446.975,28.771,446.975,64.264L446.975,64.264z"/>
<g>
	<g>
		<path fill="#49E6F2" d="M61.876,77.285c0.078,5.146-0.572,10.205-1.821,15.193c-0.183,0.725-0.447,1.383-1.276,1.569
			c-1.275,0.287-2.252-0.717-1.968-2.018c0.337-1.547,0.726-3.082,1.001-4.639c0.708-3.998,0.979-8.027,0.764-12.092
			c-0.201-3.792-0.769-7.519-1.694-11.195c-0.19-0.752-0.461-1.434-1.269-1.738c-0.645-0.244-1.229-0.146-1.759,0.266
			c-0.524,0.407-0.861,0.951-0.734,1.617c0.248,1.295,0.6,2.57,0.853,3.865c0.704,3.619,1.036,7.275,0.928,10.965
			c-0.026,0.902-0.717,1.521-1.634,1.508c-0.891-0.015-1.532-0.676-1.573-1.582c-0.095-2.131-0.073-4.274-0.341-6.385
			c-0.317-2.486-0.831-4.951-1.372-7.4c-0.607-2.752,1.262-5.598,4.015-6.108c2.641-0.494,5.25,1.213,5.927,3.86
			C61.119,67.674,61.797,72.436,61.876,77.285z"/>
		<path fill="#49E6F2" d="M74.813,78.405c-0.202,2.56-0.41,5.477-0.677,8.388c-0.093,1.011-0.874,1.589-1.78,1.467
			c-0.97-0.127-1.496-0.899-1.42-1.948c0.199-2.752,0.48-5.506,0.517-8.263c0.066-5.159-0.556-10.26-1.712-15.295
			c-0.508-2.203-1.047-4.387-2.278-6.328c-2.373-3.745-5.738-6.01-10.106-6.793c-2.366-0.426-4.678-0.198-6.961,0.515
			c-0.829,0.26-1.518,0.021-1.938-0.625c-0.382-0.59-0.359-1.381,0.126-1.89c0.23-0.24,0.551-0.442,0.869-0.545
			c5.139-1.612,10.062-1.073,14.688,1.668c4.571,2.709,7.24,6.8,8.44,11.931c0.77,3.295,1.424,6.604,1.741,9.969
			C74.553,73.107,74.64,75.572,74.813,78.405z"/>
		<path fill="#49E6F2" d="M55.061,40.027c5.895,0.111,11.23,2.07,15.801,6.041c0.841,0.729,0.947,1.688,0.296,2.42
			c-0.622,0.7-1.636,0.7-2.454-0.014c-2.697-2.354-5.779-3.959-9.285-4.707c-5.4-1.152-10.507-0.332-15.227,2.522
			c-5.031,3.043-8.209,7.494-9.523,13.221c-0.338,1.476-0.398,3.017-0.538,4.529c-0.081,0.902-0.647,1.588-1.475,1.64
			c-0.856,0.053-1.626-0.482-1.722-1.285c-0.066-0.563-0.047-1.144-0.008-1.711c0.654-9.648,6.759-17.855,15.737-21.152
			C49.329,40.552,52.086,40.084,55.061,40.027z"/>
		<path fill="#49E6F2" d="M54.255,52.613c6.085,0.005,10.688,3.719,11.94,8.977c0.729,3.056,1.351,6.123,1.701,9.24
			c0.166,1.48,0.256,2.969,0.334,4.457c0.049,0.949-0.607,1.678-1.479,1.75c-0.867,0.07-1.597-0.481-1.709-1.434
			c-0.151-1.275-0.19-2.564-0.313-3.845c-0.328-3.459-0.922-6.877-1.922-10.202c-1.091-3.623-4.729-6.009-8.532-5.711
			c-3.958,0.309-7.228,3.592-7.566,7.51c-0.117,1.338,0.184,2.588,0.488,3.852c0.24,0.994-0.223,1.896-1.084,2.092
			c-0.994,0.228-1.841-0.305-2.039-1.342c-0.227-1.186-0.531-2.377-0.573-3.572c-0.128-3.596,1.241-6.602,3.931-8.965
			C49.566,53.547,52.105,52.643,54.255,52.613z"/>
		<path fill="#49E6F2" d="M39.102,89.521c-1.066-0.015-1.76-0.972-1.521-2.086c0.308-1.438,0.664-2.871,0.897-4.322
			c0.462-2.879,0.61-5.788,0.185-8.682c-0.362-2.461-0.93-4.892-1.349-7.347c-0.699-4.11-0.021-8.004,1.985-11.662
			c1.222-2.227,2.872-4.084,4.876-5.631c0.524-0.406,1.077-0.639,1.74-0.44c0.65,0.194,1.017,0.672,1.112,1.313
			c0.102,0.68-0.21,1.209-0.758,1.607c-1.768,1.287-3.162,2.897-4.204,4.821c-1.887,3.494-2.278,7.159-1.264,10.988
			c1.196,4.525,1.636,9.119,1.058,13.771c-0.27,2.165-0.758,4.305-1.184,6.447C40.524,89.057,39.844,89.531,39.102,89.521z"/>
		<path fill="#49E6F2" d="M54.921,33.924c2.496-0.026,4.953,0.275,7.369,0.896c0.961,0.246,1.524,1.074,1.317,1.914
			c-0.213,0.858-1.041,1.479-2.072,1.211c-3.096-0.801-6.245-1.005-9.417-0.664c-4.483,0.479-8.608,1.986-12.343,4.527
			c-3.259,2.217-5.892,5.028-7.942,8.395c-0.561,0.919-1.563,1.156-2.353,0.598c-0.709-0.5-0.906-1.418-0.435-2.204
			c1.835-3.06,4.131-5.718,6.905-7.964c3.803-3.077,8.106-5.127,12.891-6.084c1.992-0.397,4.038-0.528,6.061-0.779
			C54.908,33.82,54.913,33.873,54.921,33.924z"/>
		<path fill="#49E6F2" d="M80.856,76.383c0,0.922,0.021,1.843-0.006,2.765c-0.022,0.842-0.515,1.465-1.231,1.633
			c-0.694,0.164-1.436-0.104-1.756-0.73c-0.169-0.325-0.254-0.733-0.25-1.104c0.049-3.854-0.19-7.689-0.744-11.5
			c-0.496-3.396-1.158-6.762-2.202-10.035c-0.563-1.76-1.41-3.387-2.423-4.926c-0.574-0.875-0.429-1.842,0.362-2.377
			c0.77-0.521,1.741-0.273,2.33,0.597c1.882,2.774,3.063,5.845,3.729,9.108c0.594,2.928,1.188,5.86,1.599,8.815
			c0.356,2.563,0.45,5.166,0.66,7.75C80.901,76.379,80.879,76.381,80.856,76.383z"/>
		<path fill="#49E6F2" d="M82.519,58.315c-0.79-0.034-1.306-0.44-1.532-1.268c-0.64-2.329-1.553-4.543-2.789-6.618
			c-2.723-4.572-6.451-8.066-11.214-10.451c-0.776-0.39-1.131-0.984-1.032-1.767c0.082-0.657,0.603-1.252,1.287-1.328
			c0.362-0.041,0.786,0.025,1.111,0.185c3.612,1.767,6.73,4.18,9.377,7.209c3.009,3.445,5.077,7.387,6.352,11.772
			C84.471,57.404,83.461,58.396,82.519,58.315z"/>
		<path fill="#49E6F2" d="M48.598,78.133c-0.089,4.476-0.779,8.839-2.094,13.105c-0.244,0.795-0.803,1.233-1.556,1.25
			c-0.685,0.016-1.33-0.385-1.518-1.055c-0.098-0.353-0.108-0.78-0.003-1.127c0.857-2.828,1.418-5.711,1.69-8.65
			c0.264-2.85,0.247-5.695-0.134-8.535c-0.158-1.172,0.232-1.926,1.169-2.176c0.959-0.257,1.916,0.391,2.005,1.416
			C48.326,74.283,48.454,76.209,48.598,78.133z"/>
		<path fill="#49E6F2" d="M24.725,64.037c0.074-2.633,0.359-5.236,1.079-7.774c0.212-0.75,0.872-1.229,1.585-1.207
			c0.688,0.019,1.321,0.489,1.49,1.182c0.069,0.289,0.074,0.629,0,0.916c-1.226,4.627-1.208,9.25-0.014,13.877
			c0.235,0.912-0.226,1.811-1.038,2.021c-0.942,0.246-1.804-0.231-2.058-1.178C25.08,69.309,24.771,66.689,24.725,64.037z"/>
		<path fill="#49E6F2" d="M36.054,78.001c-0.191,1.824-0.354,3.653-0.585,5.473c-0.141,1.115-0.962,1.7-1.957,1.502
			c-0.918-0.185-1.402-1.038-1.219-2.087c0.726-4.153,0.527-8.266-0.51-12.348c-0.14-0.549-0.286-1.105-0.319-1.666
			c-0.049-0.771,0.533-1.41,1.29-1.545c0.747-0.135,1.59,0.32,1.793,1.049C35.419,71.521,35.988,74.713,36.054,78.001z"/>
		<path fill="#49E6F2" d="M68.246,80.508c-0.14,3.533-0.555,7.035-1.289,10.494c-0.211,0.999-0.986,1.494-1.959,1.297
			c-0.865-0.177-1.353-0.969-1.219-1.926c0.391-2.801,0.776-5.602,1.147-8.407c0.075-0.562,0.036-1.14,0.104-1.701
			c0.123-0.995,0.821-1.558,1.777-1.475C67.658,78.863,68.264,79.584,68.246,80.508z"/>
		<path fill="#49E6F2" d="M51.135,94.045c-1.106-0.002-1.789-0.985-1.518-2.114c0.508-2.111,0.992-4.228,1.464-6.345
			c0.133-0.592,0.174-1.201,0.278-1.799c0.158-0.9,0.902-1.446,1.791-1.333c0.85,0.108,1.5,0.89,1.395,1.763
			c-0.357,2.966-0.962,5.882-1.866,8.732C52.449,93.674,51.894,94.045,51.135,94.045z"/>
	</g>
</g>
<linearGradient id="SVGID_2_" gradientUnits="userSpaceOnUse" x1="225.3652" y1="473.4646" x2="223.3652" y2="687.4646" gradientTransform="matrix(1 0 0 1 -0.0898 -466.959)">
	<stop  offset="0" style="stop-color:#1CB6EA"/>
	<stop  offset="1" style="stop-color:#2E15B0"/>
</linearGradient>
<path fill="url(#SVGID_2_)" d="M446.975,197.787c0,35.484-28.774,64.258-64.264,64.258H64.264C28.776,262.044,0,233.272,0,197.787
	l0,0c0-35.493,28.776-64.265,64.264-64.265h318.447C418.198,133.522,446.975,162.294,446.975,197.787L446.975,197.787z"/>
<g>
	<g>
		<path fill="#49E6F2" d="M61.876,210.807c0.078,5.146-0.572,10.205-1.821,15.193c-0.183,0.725-0.447,1.383-1.276,1.568
			c-1.275,0.287-2.252-0.717-1.968-2.018c0.337-1.547,0.726-3.082,1.001-4.639c0.708-3.998,0.979-8.027,0.764-12.093
			c-0.201-3.792-0.769-7.519-1.694-11.194c-0.19-0.752-0.461-1.435-1.269-1.738c-0.645-0.244-1.229-0.146-1.759,0.266
			c-0.524,0.407-0.861,0.951-0.734,1.617c0.248,1.295,0.6,2.57,0.853,3.865c0.704,3.619,1.036,7.275,0.928,10.965
			c-0.026,0.902-0.717,1.521-1.634,1.508c-0.891-0.015-1.532-0.676-1.573-1.582c-0.095-2.131-0.073-4.273-0.341-6.385
			c-0.317-2.486-0.831-4.951-1.372-7.4c-0.607-2.752,1.262-5.598,4.015-6.107c2.641-0.494,5.25,1.213,5.927,3.86
			C61.119,201.196,61.797,205.959,61.876,210.807z"/>
		<path fill="#49E6F2" d="M74.813,211.927c-0.202,2.56-0.41,5.477-0.677,8.388c-0.093,1.012-0.874,1.589-1.78,1.467
			c-0.97-0.127-1.496-0.898-1.42-1.947c0.199-2.752,0.48-5.506,0.517-8.264c0.066-5.158-0.556-10.26-1.712-15.295
			c-0.508-2.203-1.047-4.387-2.278-6.328c-2.373-3.744-5.738-6.01-10.106-6.793c-2.366-0.426-4.678-0.197-6.961,0.516
			c-0.829,0.26-1.518,0.021-1.938-0.625c-0.382-0.59-0.359-1.381,0.126-1.891c0.23-0.239,0.551-0.441,0.869-0.545
			c5.139-1.611,10.062-1.072,14.688,1.668c4.571,2.709,7.24,6.801,8.44,11.932c0.77,3.295,1.424,6.604,1.741,9.969
			C74.553,206.63,74.64,209.094,74.813,211.927z"/>
		<path fill="#49E6F2" d="M55.061,173.55c5.895,0.111,11.23,2.07,15.801,6.041c0.841,0.729,0.947,1.688,0.296,2.42
			c-0.622,0.7-1.636,0.7-2.454-0.014c-2.697-2.354-5.779-3.959-9.285-4.707c-5.4-1.152-10.507-0.332-15.227,2.521
			c-5.031,3.043-8.209,7.494-9.523,13.221c-0.338,1.477-0.398,3.018-0.538,4.529c-0.081,0.902-0.647,1.588-1.475,1.641
			c-0.856,0.053-1.626-0.482-1.722-1.285c-0.066-0.563-0.047-1.145-0.008-1.711c0.654-9.648,6.759-17.855,15.737-21.152
			C49.329,174.074,52.086,173.606,55.061,173.55z"/>
		<path fill="#49E6F2" d="M54.255,186.135c6.085,0.005,10.688,3.719,11.94,8.977c0.729,3.057,1.351,6.123,1.701,9.24
			c0.166,1.48,0.256,2.969,0.334,4.457c0.049,0.949-0.607,1.678-1.479,1.75c-0.867,0.07-1.597-0.48-1.709-1.434
			c-0.151-1.275-0.19-2.564-0.313-3.846c-0.328-3.459-0.922-6.877-1.922-10.201c-1.091-3.623-4.729-6.01-8.532-5.711
			c-3.958,0.309-7.228,3.592-7.566,7.51c-0.117,1.338,0.184,2.588,0.488,3.852c0.24,0.994-0.223,1.896-1.084,2.092
			c-0.994,0.229-1.841-0.305-2.039-1.342c-0.227-1.186-0.531-2.377-0.573-3.572c-0.128-3.596,1.241-6.602,3.931-8.965
			C49.566,187.069,52.105,186.166,54.255,186.135z"/>
		<path fill="#49E6F2" d="M39.102,223.044c-1.066-0.016-1.76-0.973-1.521-2.086c0.308-1.438,0.664-2.871,0.897-4.322
			c0.462-2.879,0.61-5.788,0.185-8.682c-0.362-2.461-0.93-4.893-1.349-7.348c-0.699-4.109-0.021-8.004,1.985-11.662
			c1.222-2.227,2.872-4.084,4.876-5.631c0.524-0.406,1.077-0.639,1.74-0.439c0.65,0.193,1.017,0.672,1.112,1.313
			c0.102,0.68-0.21,1.209-0.758,1.607c-1.768,1.287-3.162,2.896-4.204,4.82c-1.887,3.494-2.278,7.159-1.264,10.988
			c1.196,4.525,1.636,9.119,1.058,13.771c-0.27,2.165-0.758,4.305-1.184,6.446C40.524,222.58,39.844,223.053,39.102,223.044z"/>
		<path fill="#49E6F2" d="M54.921,167.446c2.496-0.025,4.953,0.275,7.369,0.896c0.961,0.246,1.524,1.074,1.317,1.914
			c-0.213,0.857-1.041,1.479-2.072,1.211c-3.096-0.801-6.245-1.005-9.417-0.664c-4.483,0.479-8.608,1.986-12.343,4.527
			c-3.259,2.217-5.892,5.027-7.942,8.395c-0.561,0.919-1.563,1.156-2.353,0.598c-0.709-0.5-0.906-1.418-0.435-2.203
			c1.835-3.061,4.131-5.719,6.905-7.965c3.803-3.076,8.106-5.127,12.891-6.084c1.992-0.396,4.038-0.527,6.061-0.778
			C54.908,167.343,54.913,167.395,54.921,167.446z"/>
		<path fill="#49E6F2" d="M80.856,209.905c0,0.923,0.021,1.844-0.006,2.766c-0.022,0.842-0.515,1.465-1.231,1.633
			c-0.694,0.164-1.436-0.104-1.756-0.73c-0.169-0.324-0.254-0.732-0.25-1.104c0.049-3.854-0.19-7.689-0.744-11.5
			c-0.496-3.396-1.158-6.762-2.202-10.035c-0.563-1.76-1.41-3.387-2.423-4.926c-0.574-0.875-0.429-1.842,0.362-2.377
			c0.77-0.521,1.741-0.273,2.33,0.597c1.882,2.774,3.063,5.845,3.729,9.108c0.594,2.928,1.188,5.859,1.599,8.814
			c0.356,2.563,0.45,5.166,0.66,7.75C80.901,209.901,80.879,209.903,80.856,209.905z"/>
		<path fill="#49E6F2" d="M82.519,191.838c-0.79-0.034-1.306-0.44-1.532-1.269c-0.64-2.329-1.553-4.543-2.789-6.617
			c-2.723-4.572-6.451-8.066-11.214-10.451c-0.776-0.391-1.131-0.984-1.032-1.768c0.082-0.656,0.603-1.252,1.287-1.328
			c0.362-0.041,0.786,0.025,1.111,0.186c3.612,1.767,6.73,4.18,9.377,7.209c3.009,3.445,5.077,7.387,6.352,11.771
			C84.471,190.927,83.461,191.919,82.519,191.838z"/>
		<path fill="#49E6F2" d="M48.598,211.655c-0.089,4.477-0.779,8.84-2.094,13.105c-0.244,0.795-0.803,1.233-1.556,1.25
			c-0.685,0.016-1.33-0.385-1.518-1.055c-0.098-0.354-0.108-0.78-0.003-1.127c0.857-2.828,1.418-5.711,1.69-8.65
			c0.264-2.85,0.247-5.695-0.134-8.535c-0.158-1.172,0.232-1.926,1.169-2.176c0.959-0.257,1.916,0.391,2.005,1.416
			C48.326,207.805,48.454,209.731,48.598,211.655z"/>
		<path fill="#49E6F2" d="M24.725,197.559c0.074-2.633,0.359-5.236,1.079-7.773c0.212-0.75,0.872-1.229,1.585-1.207
			c0.688,0.019,1.321,0.488,1.49,1.182c0.069,0.289,0.074,0.629,0,0.916c-1.226,4.627-1.208,9.25-0.014,13.877
			c0.235,0.912-0.226,1.811-1.038,2.021c-0.942,0.246-1.804-0.23-2.058-1.178C25.08,202.832,24.771,200.212,24.725,197.559z"/>
		<path fill="#49E6F2" d="M36.054,211.523c-0.191,1.824-0.354,3.653-0.585,5.474c-0.141,1.114-0.962,1.699-1.957,1.502
			c-0.918-0.186-1.402-1.038-1.219-2.087c0.726-4.153,0.527-8.267-0.51-12.349c-0.14-0.549-0.286-1.104-0.319-1.666
			c-0.049-0.771,0.533-1.41,1.29-1.545c0.747-0.135,1.59,0.32,1.793,1.049C35.419,205.044,35.988,208.235,36.054,211.523z"/>
		<path fill="#49E6F2" d="M68.246,214.03c-0.14,3.533-0.555,7.035-1.289,10.494c-0.211,0.999-0.986,1.494-1.959,1.297
			c-0.865-0.177-1.353-0.969-1.219-1.926c0.391-2.801,0.776-5.602,1.147-8.407c0.075-0.562,0.036-1.14,0.104-1.7
			c0.123-0.995,0.821-1.559,1.777-1.476C67.658,212.385,68.264,213.106,68.246,214.03z"/>
		<path fill="#49E6F2" d="M51.135,227.567c-1.106-0.002-1.789-0.984-1.518-2.113c0.508-2.111,0.992-4.229,1.464-6.346
			c0.133-0.592,0.174-1.201,0.278-1.799c0.158-0.9,0.902-1.446,1.791-1.333c0.85,0.108,1.5,0.89,1.395,1.763
			c-0.357,2.967-0.962,5.883-1.866,8.732C52.449,227.196,51.894,227.567,51.135,227.567z"/>
	</g>
</g>
</svg>
