<?xml version="1.0" encoding="utf-8"?>
<!-- Generator: Adobe Illustrator 16.0.0, SVG Export Plug-In . SVG Version: 6.00 Build 0)  -->
<!DOCTYPE svg PUBLIC "-//W3C//DTD SVG 1.1//EN" "http://www.w3.org/Graphics/SVG/1.1/DTD/svg11.dtd">
<svg xmlns="http://www.w3.org/2000/svg" xmlns:xlink="http://www.w3.org/1999/xlink" version="1.1" id="Layer_1" x="0px" y="0px" width="115.854px" height="108.705px" viewBox="0 0 115.854 108.705" enable-background="new 0 0 115.854 108.705" xml:space="preserve">
<g>
	<linearGradient id="SVGID_2_" gradientUnits="userSpaceOnUse" x1="27.0002" y1="51.1997" x2="25.3342" y2="20.5328" gradientTransform="matrix(1 0 0 -1 -0.0449 54.4268)">
		<stop offset="0" style="stop-color:#00FFCE"/>
		<stop offset="1" style="stop-color:#00B4CE"/>
	</linearGradient>
	<circle fill="url(#SVGID_2_)" cx="25.655" cy="27.154" r="13.309"/>
	<g>
		<path fill="#FFFFFF" d="M17.766,29.195c0.025,0,0.051,0,0.07,0c0.418,0,0.835,0.002,1.254-0.002c0.062,0,0.084,0.021,0.102,0.076    c0.229,0.697,0.559,1.34,0.996,1.928c0.769,1.027,1.743,1.785,2.932,2.268c0.694,0.283,1.421,0.443,2.173,0.479    c1.513,0.073,2.903-0.306,4.16-1.153c1.193-0.808,2.05-1.893,2.565-3.242c0.192-0.504,0.318-1.026,0.385-1.563    c0.063-0.522,0.067-1.044,0.012-1.568c-0.112-1.023-0.441-1.975-0.987-2.85c-0.51-0.817-1.165-1.496-1.959-2.038    c-0.714-0.487-1.492-0.824-2.335-1.011c-0.782-0.172-1.566-0.212-2.358-0.106c-1.333,0.179-2.515,0.704-3.536,1.578    c-0.964,0.824-1.645,1.843-2.044,3.046c-0.02,0.06-0.042,0.082-0.107,0.082c-0.414-0.004-0.828-0.002-1.244-0.002    c-0.023,0-0.05,0-0.073,0c0.828-3.377,4.107-6.35,8.367-6.104c4.219,0.24,7.599,3.709,7.677,7.992    c0.076,4.227-3.056,7.682-7.009,8.229C22.356,35.85,18.687,32.873,17.766,29.195z"/>
		<path fill="#FFFFFF" d="M24.231,24.936c0.334-0.334,0.653-0.65,0.968-0.968c1.061,1.06,2.123,2.124,3.182,3.183    c-1.061,1.062-2.126,2.127-3.187,3.187c-0.31-0.312-0.627-0.629-0.951-0.953c0.509-0.51,1.023-1.023,1.546-1.545    c-2.77,0-5.527,0-8.292,0c0-0.456,0-0.904,0-1.361c2.759,0,5.521,0,8.275,0C25.259,25.962,24.743,25.447,24.231,24.936z"/>
	</g>
</g>

</svg>
