<?xml version="1.0" encoding="utf-8"?>
<!-- Generator: Adobe Illustrator 16.0.0, SVG Export Plug-In . SVG Version: 6.00 Build 0)  -->
<!DOCTYPE svg PUBLIC "-//W3C//DTD SVG 1.1//EN" "http://www.w3.org/Graphics/SVG/1.1/DTD/svg11.dtd">
<svg version="1.1" id="Layer_1" xmlns="http://www.w3.org/2000/svg" xmlns:xlink="http://www.w3.org/1999/xlink" x="0px" y="0px"
	 width="481.591px" height="193px" viewBox="0 0 481.591 193" enable-background="new 0 0 481.591 193" xml:space="preserve">
<g>
	<path opacity="0.2" d="M481.469,95.229c0,35.486-28.776,64.258-64.264,64.258H98.758c-35.487,0-64.264-28.771-64.264-64.258l0,0
		c0-35.494,28.776-64.264,64.264-64.264h318.447C452.692,30.965,481.469,59.734,481.469,95.229L481.469,95.229z"/>
	<path opacity="0.2" fill="#FFFFFF" d="M479.992,93.038c0,35.492-28.775,64.263-64.264,64.263H97.281
		c-20.795,0-39.274-9.889-51.021-25.209c11.626,16.559,30.854,27.395,52.62,27.395h318.447c35.487,0,64.264-28.771,64.264-64.264
		c0-14.691-4.943-28.223-13.242-39.048C475.678,66.611,479.992,79.318,479.992,93.038z"/>
	<g>
		<g>
			<path fill="#FFFFFF" d="M177.907,72.189h2.793c1.927,0,3.463-0.465,4.61-1.396c1.115-0.92,1.673-2.127,1.673-3.621
				c0-1.406-0.53-2.564-1.591-3.475c-1.094-0.951-2.528-1.428-4.303-1.428c-1.667,0-3.063,0.454-4.189,1.363
				c-1.082,0.888-1.721,2.046-1.915,3.475h-1.25c0.194-1.786,0.946-3.23,2.256-4.335c1.354-1.126,3.063-1.688,5.131-1.688
				c2.11,0,3.843,0.579,5.195,1.737c1.31,1.136,1.965,2.565,1.965,4.286c0,1.407-0.438,2.604-1.315,3.588
				c-0.888,0.996-2.105,1.646-3.652,1.948v0.081c1.828,0.141,3.257,0.742,4.286,1.803c1.017,1.039,1.525,2.393,1.525,4.059
				c0,1.927-0.741,3.518-2.224,4.773c-1.516,1.299-3.475,1.948-5.878,1.948c-2.24,0-4.118-0.606-5.634-1.818
				c-1.472-1.19-2.262-2.668-2.37-4.433h1.267c0.107,1.418,0.79,2.614,2.046,3.588c1.287,0.996,2.857,1.494,4.708,1.494
				c2.035,0,3.68-0.535,4.936-1.607c1.223-1.039,1.835-2.365,1.835-3.978c0-1.667-0.59-2.944-1.77-3.831
				c-1.213-0.91-2.982-1.365-5.31-1.365h-2.825V72.189z"/>
			<path fill="#FFFFFF" d="M193.331,83.766c-1.071-0.91-1.607-2.095-1.607-3.557c0-3.02,2.084-4.686,6.251-5l5.991-0.438v-1.559
				c0-1.526-0.438-2.717-1.315-3.571c-0.888-0.855-2.116-1.283-3.686-1.283c-1.482,0-2.694,0.363-3.637,1.088
				c-0.941,0.725-1.516,1.748-1.721,3.068h-1.218c0.151-1.612,0.828-2.9,2.029-3.863c1.202-0.964,2.723-1.445,4.563-1.445
				c1.916,0,3.437,0.53,4.563,1.591c1.114,1.062,1.672,2.506,1.672,4.335v11.787h-1.218v-3.767h-0.032
				c-0.433,1.19-1.245,2.153-2.436,2.89s-2.527,1.104-4.01,1.104C195.81,85.146,194.414,84.686,193.331,83.766z M202.131,82.401
				c1.224-1.093,1.835-2.413,1.835-3.962v-2.613l-5.829,0.438c-3.431,0.25-5.146,1.564-5.146,3.945c0,1.115,0.444,2.03,1.331,2.744
				c0.877,0.715,1.997,1.072,3.361,1.072C199.425,84.025,200.908,83.484,202.131,82.401z"/>
			<path fill="#FFFFFF" d="M221.257,68.536h-10.862v16.382h-1.25V67.432h13.362v17.486h-1.25V68.536z"/>
			<path fill="#FFFFFF" d="M227.037,90.52v-1.121c0.26,0.087,0.563,0.131,0.909,0.131c0.779,0,1.417-0.25,1.915-0.747
				c0.477-0.477,0.942-1.305,1.396-2.484l0.438-1.136l-6.689-17.73h1.348l5.991,16.252h0.032l5.991-16.252h1.331l-6.77,18.039
				c-0.791,2.088-1.516,3.479-2.176,4.172c-0.66,0.682-1.607,1.023-2.842,1.023C227.653,90.666,227.361,90.617,227.037,90.52z"/>
			<path fill="#FFFFFF" d="M254.557,72.352c-0.325-1.19-0.985-2.148-1.98-2.873c-1.028-0.748-2.252-1.121-3.67-1.121
				c-1.959,0-3.522,0.709-4.691,2.127c-1.159,1.407-1.737,3.307-1.737,5.699c0,2.392,0.578,4.297,1.737,5.715
				c1.169,1.406,2.738,2.11,4.708,2.11c1.386,0,2.581-0.341,3.588-1.022c0.985-0.682,1.65-1.592,1.997-2.729h1.267
				c-0.357,1.473-1.147,2.652-2.37,3.54c-1.245,0.898-2.744,1.348-4.498,1.348c-2.349,0-4.216-0.807-5.601-2.419
				c-1.396-1.613-2.095-3.794-2.095-6.543c0-2.738,0.698-4.92,2.095-6.543c1.396-1.624,3.263-2.436,5.601-2.436
				c1.765,0,3.285,0.492,4.563,1.477c1.223,0.953,2.008,2.176,2.354,3.67H254.557z"/>
			<path fill="#FFFFFF" d="M271.003,68.536h-6.348v16.382h-1.25V68.536h-6.365v-1.104h13.963V68.536z"/>
			<path fill="#FFFFFF" d="M273.747,84.918V67.432h1.25v15.506h0.081l11.138-15.506h1.25v17.486h-1.25V69.43h-0.064l-11.154,15.488
				H273.747z"/>
			<path fill="#FFFFFF" d="M304.173,68.536h-6.348v16.382h-1.25V68.536h-6.365v-1.104h13.963V68.536z"/>
			<path fill="#FFFFFF" d="M306.916,67.432h1.25v6.414h4.465c1.818,0,3.274,0.498,4.367,1.493c1.094,0.996,1.641,2.338,1.641,4.026
				s-0.547,3.036-1.641,4.043c-1.093,1.006-2.549,1.51-4.367,1.51h-5.715V67.432z M308.166,74.934v8.881h4.465
				c1.439,0,2.593-0.406,3.458-1.219c0.866-0.801,1.299-1.877,1.299-3.23c0-1.342-0.433-2.414-1.299-3.215
				c-0.865-0.812-2.019-1.217-3.458-1.217H308.166z"/>
			<path fill="#FFFFFF" d="M341.579,69.689c1.375,1.666,2.063,3.831,2.063,6.494c0,2.662-0.682,4.822-2.046,6.478
				c-1.364,1.656-3.145,2.484-5.342,2.484c-1.58,0-2.966-0.466-4.156-1.396c-1.158-0.888-1.932-2.034-2.321-3.442h-0.049V90.52
				h-1.267V67.432h1.186v4.676h0.049c0.399-1.418,1.185-2.581,2.354-3.49c1.224-0.941,2.619-1.412,4.189-1.412
				C338.435,67.205,340.216,68.033,341.579,69.689z M340.621,81.85c1.158-1.451,1.737-3.34,1.737-5.666
				c0-2.328-0.579-4.217-1.737-5.666c-1.158-1.439-2.668-2.16-4.529-2.16c-1.873,0-3.404,0.726-4.595,2.176
				c-1.18,1.451-1.77,3.334-1.77,5.65c0,2.305,0.59,4.184,1.77,5.633c1.19,1.462,2.722,2.192,4.595,2.192
				C337.953,84.009,339.463,83.289,340.621,81.85z"/>
			<path fill="#FFFFFF" d="M348.221,82.727c-1.429-1.635-2.144-3.816-2.144-6.543c0-2.738,0.715-4.926,2.144-6.56
				c1.418-1.612,3.296-2.419,5.634-2.419c2.349,0,4.231,0.807,5.649,2.419c1.429,1.634,2.144,3.821,2.144,6.56
				c0,2.727-0.715,4.908-2.144,6.543c-1.429,1.612-3.312,2.419-5.649,2.419S349.639,84.339,348.221,82.727z M358.579,81.898
				c1.19-1.418,1.786-3.323,1.786-5.715c0-2.403-0.596-4.313-1.786-5.731c-1.169-1.396-2.744-2.095-4.725-2.095
				s-3.556,0.698-4.725,2.095c-1.191,1.418-1.786,3.328-1.786,5.731c0,2.402,0.595,4.308,1.786,5.715
				c1.18,1.406,2.754,2.11,4.725,2.11C355.824,84.009,357.399,83.305,358.579,81.898z"/>
			<path fill="#FFFFFF" d="M366.339,82.645c-1.353-1.731-2.029-4.205-2.029-7.42c0-5.314,0.66-9.043,1.98-11.186
				c1.332-2.144,3.664-3.236,6.998-3.279c0.952,0,1.818-0.039,2.598-0.114c1.244-0.108,2.202-0.309,2.874-0.601v1.104
				c-0.563,0.314-1.488,0.525-2.776,0.634c-0.823,0.097-1.716,0.146-2.68,0.146c-2.651,0.022-4.551,0.779-5.698,2.273
				c-1.115,1.461-1.835,4.054-2.159,7.777h0.064c0.541-1.418,1.391-2.518,2.549-3.297c1.18-0.789,2.565-1.185,4.157-1.185
				c2.338,0,4.205,0.796,5.601,2.387c1.396,1.603,2.095,3.729,2.095,6.38c0,2.729-0.709,4.904-2.127,6.527
				c-1.418,1.635-3.312,2.451-5.683,2.451C369.603,85.242,367.681,84.377,366.339,82.645z M376.859,81.963
				c1.18-1.406,1.771-3.307,1.771-5.699c0-2.326-0.591-4.178-1.771-5.552c-1.169-1.374-2.754-2.062-4.757-2.062
				c-2.002,0-3.594,0.688-4.773,2.062c-1.169,1.374-1.753,3.226-1.753,5.552c0,2.393,0.59,4.298,1.77,5.716
				c1.169,1.407,2.755,2.11,4.757,2.11C374.094,84.09,375.68,83.381,376.859,81.963z"/>
			<path fill="#FFFFFF" d="M384.491,82.727c-1.429-1.635-2.144-3.816-2.144-6.543c0-2.738,0.715-4.926,2.144-6.56
				c1.418-1.612,3.296-2.419,5.634-2.419c2.349,0,4.231,0.807,5.649,2.419c1.429,1.634,2.144,3.821,2.144,6.56
				c0,2.727-0.715,4.908-2.144,6.543c-1.429,1.612-3.312,2.419-5.649,2.419S385.909,84.339,384.491,82.727z M394.85,81.898
				c1.19-1.418,1.786-3.323,1.786-5.715c0-2.403-0.596-4.313-1.786-5.731c-1.169-1.396-2.744-2.095-4.725-2.095
				s-3.556,0.698-4.725,2.095c-1.191,1.418-1.786,3.328-1.786,5.731c0,2.402,0.595,4.308,1.786,5.715
				c1.18,1.406,2.754,2.11,4.725,2.11C392.095,84.009,393.67,83.305,394.85,81.898z"/>
			<path fill="#FFFFFF" d="M412.951,68.536h-6.348v16.382h-1.25V68.536h-6.365v-1.104h13.963V68.536z"/>
			<path fill="#FFFFFF" d="M415.225,83.766c-1.071-0.91-1.607-2.095-1.607-3.557c0-3.02,2.084-4.686,6.251-5l5.991-0.438v-1.559
				c0-1.526-0.438-2.717-1.315-3.571c-0.888-0.855-2.116-1.283-3.686-1.283c-1.482,0-2.694,0.363-3.637,1.088
				c-0.941,0.725-1.516,1.748-1.721,3.068h-1.218c0.151-1.612,0.828-2.9,2.029-3.863c1.202-0.964,2.723-1.445,4.563-1.445
				c1.916,0,3.437,0.53,4.563,1.591c1.114,1.062,1.672,2.506,1.672,4.335v11.787h-1.218v-3.767h-0.032
				c-0.433,1.19-1.245,2.153-2.436,2.89s-2.527,1.104-4.01,1.104C417.703,85.146,416.308,84.686,415.225,83.766z M424.024,82.401
				c1.224-1.093,1.835-2.413,1.835-3.962v-2.613l-5.829,0.438c-3.431,0.25-5.146,1.564-5.146,3.945c0,1.115,0.444,2.03,1.331,2.744
				c0.877,0.715,1.997,1.072,3.361,1.072C421.318,84.025,422.802,83.484,424.024,82.401z"/>
			<path fill="#49E6F2" d="M188.331,122.854c-1.407,1.31-3.21,1.964-5.406,1.964H174.4v-23.428h13.687v2.631h-10.764v6.705h5.568
				c2.208,0,4.016,0.654,5.423,1.965c1.407,1.32,2.11,3.02,2.11,5.098C190.425,119.856,189.728,121.545,188.331,122.854z
				 M182.161,122.188c1.678,0,2.977-0.378,3.896-1.136c0.909-0.77,1.364-1.857,1.364-3.264c0-1.418-0.46-2.512-1.38-3.279
				c-0.909-0.77-2.203-1.153-3.881-1.153h-4.838v8.832H182.161z"/>
			<path fill="#49E6F2" d="M209.323,124.818h-14.515v-23.428h14.515v2.631h-11.592v7.517h10.991v2.598h-10.991v8.053h11.592V124.818
				z"/>
			<path fill="#49E6F2" d="M215.444,121.929c-1.905-2.175-2.857-5.12-2.857-8.832c0-3.681,0.958-6.613,2.874-8.8
				c1.916-2.197,4.476-3.296,7.68-3.296c2.489,0,4.616,0.683,6.38,2.046c1.754,1.354,2.847,3.155,3.28,5.406h-2.987
				c-0.423-1.45-1.24-2.604-2.452-3.458c-1.212-0.866-2.619-1.299-4.221-1.299c-2.284,0-4.113,0.854-5.488,2.565
				c-1.374,1.71-2.062,3.988-2.062,6.835c0,2.88,0.682,5.169,2.046,6.868c1.363,1.699,3.203,2.549,5.52,2.549
				c1.656,0,3.068-0.368,4.238-1.104c1.146-0.735,1.953-1.774,2.419-3.117h2.987c-0.574,2.229-1.694,3.94-3.361,5.13
				c-1.667,1.191-3.767,1.787-6.299,1.787C219.903,125.209,217.339,124.115,215.444,121.929z"/>
			<path fill="#49E6F2" d="M252.04,124.818v-20.766h-12.534v20.766h-2.938v-23.428h18.362v23.428H252.04z"/>
			<path fill="#49E6F2" d="M274.591,124.818v-20.797h-8.557l-0.746,12.03c-0.195,3.117-0.77,5.38-1.722,6.786
				c-0.941,1.418-2.359,2.127-4.254,2.127c-0.433,0-0.812-0.055-1.136-0.162v-2.614c0.237,0.065,0.53,0.098,0.876,0.098
				c1.115,0,1.938-0.493,2.468-1.478c0.542-0.984,0.877-2.608,1.007-4.871l0.845-14.547h14.141v23.428H274.591z"/>
			<path fill="#49E6F2" d="M295.259,118.113h-9.319l-2.354,6.705h-3.068l8.638-23.428h2.89l8.638,23.428h-3.068L295.259,118.113z
				 M286.8,115.629h7.599l-3.751-10.683h-0.097L286.8,115.629z"/>
			<path fill="#49E6F2" d="M306.852,124.818v-20.797h-7.55v-2.631h18.021v2.631h-7.55v20.797H306.852z"/>
			<path fill="#49E6F2" d="M336.514,124.818v-10.666h-12.858v10.666h-2.923v-23.428h2.923v10.131h12.858v-10.131h2.923v23.428
				H336.514z"/>
			<path fill="#49E6F2" d="M362.086,104.265c1.938,2.175,2.906,5.125,2.906,8.849c0,3.723-0.969,6.667-2.906,8.832
				c-1.938,2.176-4.567,3.264-7.891,3.264s-5.953-1.088-7.891-3.264c-1.938-2.165-2.906-5.109-2.906-8.832
				c0-3.724,0.969-6.674,2.906-8.849c1.938-2.176,4.567-3.264,7.891-3.264S360.148,102.089,362.086,104.265z M348.497,106.229
				c-1.396,1.699-2.095,3.994-2.095,6.885c0,2.879,0.698,5.168,2.095,6.867c1.406,1.688,3.306,2.533,5.698,2.533
				c2.392,0,4.292-0.845,5.699-2.533c1.396-1.699,2.094-3.988,2.094-6.867c0-2.891-0.698-5.186-2.094-6.885
				c-1.407-1.688-3.308-2.532-5.699-2.532C351.803,103.696,349.903,104.541,348.497,106.229z"/>
			<path fill="#49E6F2" d="M369.635,124.445c-0.356-0.357-0.535-0.795-0.535-1.314c0-0.531,0.179-0.969,0.535-1.315
				c0.357-0.357,0.796-0.536,1.315-0.536c0.53,0,0.969,0.179,1.315,0.536c0.357,0.347,0.535,0.784,0.535,1.315
				c0,0.52-0.178,0.957-0.535,1.314c-0.347,0.357-0.785,0.536-1.315,0.536C370.431,124.981,369.992,124.803,369.635,124.445z
				 M372.411,101.391l-0.194,15.651h-2.533l-0.194-15.651H372.411z"/>
		</g>
	</g>
	<linearGradient id="SVGID_1_" gradientUnits="userSpaceOnUse" x1="96.8789" y1="38.3564" x2="96.8789" y2="153.1869">
		<stop  offset="0" style="stop-color:#1CB6EA"/>
		<stop  offset="1" style="stop-color:#3E23CA"/>
	</linearGradient>
	<circle fill="url(#SVGID_1_)" cx="96.878" cy="95.225" r="50.619"/>
	<g>
		<image overflow="visible" width="194" height="194" xlink:href="2E1E51D4.png"  transform="matrix(1 0 0 1 0.0156 -0.3008)">
		</image>
	</g>
	<g>
		<path fill-rule="evenodd" clip-rule="evenodd" fill="#FFFFFF" d="M103.37,108.25c0.078,5.146-0.572,10.204-1.821,15.192
			c-0.183,0.726-0.447,1.384-1.276,1.571c-1.275,0.287-2.252-0.717-1.968-2.019c0.337-1.546,0.726-3.082,1.001-4.639
			c0.708-3.998,0.979-8.026,0.764-12.091c-0.201-3.791-0.769-7.518-1.694-11.195c-0.19-0.752-0.461-1.434-1.269-1.738
			c-0.645-0.244-1.229-0.146-1.759,0.266c-0.524,0.406-0.861,0.95-0.734,1.617c0.248,1.295,0.6,2.57,0.853,3.864
			c0.704,3.62,1.036,7.275,0.928,10.965c-0.026,0.903-0.717,1.521-1.634,1.508c-0.891-0.015-1.532-0.676-1.573-1.582
			c-0.095-2.13-0.073-4.275-0.341-6.385c-0.317-2.485-0.831-4.95-1.372-7.399c-0.607-2.752,1.262-5.598,4.015-6.109
			c2.641-0.494,5.25,1.212,5.927,3.859C102.613,98.638,103.291,103.4,103.37,108.25z"/>
		<path fill-rule="evenodd" clip-rule="evenodd" fill="#FFFFFF" d="M116.307,109.369c-0.202,2.56-0.41,5.477-0.677,8.389
			c-0.093,1.009-0.874,1.588-1.78,1.467c-0.97-0.128-1.496-0.901-1.42-1.95c0.199-2.752,0.48-5.505,0.517-8.261
			c0.066-5.16-0.556-10.261-1.712-15.295c-0.508-2.203-1.047-4.388-2.278-6.328c-2.373-3.746-5.738-6.01-10.106-6.794
			c-2.366-0.425-4.678-0.199-6.961,0.515c-0.829,0.26-1.518,0.021-1.938-0.625c-0.382-0.59-0.359-1.382,0.126-1.89
			c0.23-0.241,0.551-0.443,0.869-0.544c5.139-1.613,10.062-1.074,14.688,1.667c4.571,2.709,7.24,6.799,8.44,11.931
			c0.77,3.294,1.424,6.604,1.741,9.969C116.047,104.072,116.134,106.537,116.307,109.369z"/>
		<path fill-rule="evenodd" clip-rule="evenodd" fill="#FFFFFF" d="M96.555,70.991c5.895,0.112,11.23,2.07,15.801,6.042
			c0.841,0.73,0.947,1.688,0.296,2.419c-0.622,0.7-1.636,0.7-2.454-0.014c-2.697-2.354-5.779-3.959-9.285-4.707
			c-5.4-1.152-10.507-0.332-15.227,2.524c-5.031,3.043-8.209,7.494-9.523,13.22c-0.338,1.475-0.398,3.016-0.538,4.529
			c-0.081,0.903-0.647,1.588-1.475,1.639c-0.856,0.054-1.626-0.482-1.722-1.285c-0.066-0.562-0.047-1.142-0.008-1.71
			C73.074,84,79.179,75.793,88.157,72.496C90.823,71.517,93.58,71.048,96.555,70.991z"/>
		<path fill-rule="evenodd" clip-rule="evenodd" fill="#FFFFFF" d="M95.749,83.578c6.085,0.004,10.688,3.718,11.94,8.977
			c0.729,3.054,1.351,6.123,1.701,9.24c0.166,1.48,0.256,2.969,0.334,4.457c0.049,0.948-0.607,1.678-1.479,1.749
			c-0.867,0.071-1.597-0.481-1.709-1.433c-0.151-1.276-0.19-2.564-0.313-3.845c-0.328-3.459-0.922-6.876-1.922-10.203
			c-1.091-3.623-4.729-6.007-8.532-5.711c-3.958,0.309-7.228,3.592-7.566,7.51c-0.117,1.339,0.184,2.588,0.488,3.853
			c0.24,0.993-0.223,1.894-1.084,2.091c-0.994,0.228-1.841-0.305-2.039-1.341c-0.227-1.186-0.531-2.377-0.573-3.573
			c-0.128-3.595,1.241-6.601,3.931-8.964C91.061,84.511,93.6,83.607,95.749,83.578z"/>
		<path fill-rule="evenodd" clip-rule="evenodd" fill="#FFFFFF" d="M80.596,120.486c-1.066-0.014-1.76-0.971-1.521-2.086
			c0.308-1.438,0.664-2.871,0.897-4.322c0.462-2.88,0.61-5.789,0.185-8.682c-0.362-2.461-0.93-4.892-1.349-7.347
			c-0.699-4.111-0.021-8.003,1.985-11.661c1.222-2.228,2.872-4.084,4.876-5.632c0.524-0.405,1.077-0.639,1.74-0.44
			c0.65,0.195,1.017,0.671,1.112,1.313c0.102,0.679-0.21,1.208-0.758,1.607c-1.768,1.286-3.162,2.897-4.204,4.821
			c-1.887,3.495-2.278,7.159-1.264,10.989c1.196,4.524,1.636,9.119,1.058,13.77c-0.27,2.166-0.758,4.305-1.184,6.448
			C82.019,120.021,81.338,120.495,80.596,120.486z"/>
		<path fill-rule="evenodd" clip-rule="evenodd" fill="#FFFFFF" d="M96.415,64.889c2.496-0.028,4.953,0.275,7.369,0.896
			c0.961,0.246,1.524,1.074,1.317,1.914c-0.213,0.86-1.041,1.48-2.072,1.212c-3.096-0.802-6.245-1.006-9.417-0.664
			c-4.483,0.48-8.608,1.985-12.343,4.526c-3.259,2.218-5.892,5.03-7.942,8.395c-0.561,0.919-1.563,1.157-2.353,0.598
			c-0.709-0.5-0.906-1.417-0.435-2.205c1.835-3.059,4.131-5.717,6.905-7.963c3.803-3.077,8.106-5.127,12.891-6.084
			c1.992-0.398,4.038-0.528,6.061-0.78C96.402,64.785,96.407,64.838,96.415,64.889z"/>
		<path fill-rule="evenodd" clip-rule="evenodd" fill="#FFFFFF" d="M122.351,107.348c0,0.92,0.021,1.842-0.006,2.763
			c-0.022,0.842-0.515,1.465-1.231,1.634c-0.694,0.164-1.436-0.104-1.756-0.73c-0.169-0.326-0.254-0.735-0.25-1.106
			c0.049-3.854-0.19-7.688-0.744-11.5c-0.496-3.395-1.158-6.761-2.202-10.035c-0.563-1.76-1.41-3.386-2.423-4.926
			c-0.574-0.874-0.429-1.841,0.362-2.376c0.77-0.521,1.741-0.274,2.33,0.596c1.882,2.774,3.063,5.846,3.729,9.109
			c0.594,2.927,1.188,5.86,1.599,8.815c0.356,2.563,0.45,5.166,0.66,7.751C122.396,107.343,122.373,107.346,122.351,107.348z"/>
		<path fill-rule="evenodd" clip-rule="evenodd" fill="#FFFFFF" d="M124.013,89.279c-0.79-0.034-1.306-0.44-1.532-1.266
			c-0.64-2.33-1.553-4.544-2.789-6.619c-2.723-4.572-6.451-8.066-11.214-10.452c-0.776-0.389-1.131-0.984-1.032-1.766
			c0.082-0.657,0.603-1.252,1.287-1.328c0.362-0.04,0.786,0.025,1.111,0.184c3.612,1.767,6.73,4.181,9.377,7.21
			c3.009,3.444,5.077,7.387,6.352,11.773C125.965,88.368,124.955,89.361,124.013,89.279z"/>
		<path fill-rule="evenodd" clip-rule="evenodd" fill="#FFFFFF" d="M90.092,109.097c-0.089,4.476-0.779,8.838-2.094,13.105
			c-0.244,0.796-0.803,1.233-1.556,1.25c-0.685,0.017-1.33-0.384-1.518-1.054c-0.098-0.353-0.108-0.781-0.003-1.128
			c0.857-2.827,1.418-5.71,1.69-8.65c0.264-2.85,0.247-5.695-0.134-8.534c-0.158-1.173,0.232-1.927,1.169-2.177
			c0.959-0.257,1.916,0.392,2.005,1.416C89.82,105.247,89.948,107.173,90.092,109.097z"/>
		<path fill-rule="evenodd" clip-rule="evenodd" fill="#FFFFFF" d="M66.219,95.001c0.074-2.632,0.359-5.235,1.079-7.775
			c0.212-0.75,0.872-1.228,1.585-1.206c0.688,0.018,1.321,0.49,1.49,1.182c0.069,0.289,0.074,0.629,0,0.916
			c-1.226,4.626-1.208,9.25-0.014,13.876c0.235,0.912-0.226,1.812-1.038,2.022c-0.942,0.245-1.804-0.232-2.058-1.178
			C66.574,100.272,66.265,97.654,66.219,95.001z"/>
		<path fill-rule="evenodd" clip-rule="evenodd" fill="#FFFFFF" d="M77.548,108.965c-0.191,1.824-0.354,3.653-0.585,5.473
			c-0.141,1.115-0.962,1.701-1.957,1.501c-0.918-0.183-1.402-1.038-1.219-2.087c0.726-4.152,0.527-8.265-0.51-12.346
			c-0.14-0.549-0.286-1.107-0.319-1.666c-0.049-0.772,0.533-1.41,1.29-1.546c0.747-0.134,1.59,0.32,1.793,1.05
			C76.913,102.486,77.482,105.677,77.548,108.965z"/>
		<path fill-rule="evenodd" clip-rule="evenodd" fill="#FFFFFF" d="M109.74,111.472c-0.14,3.534-0.555,7.035-1.289,10.495
			c-0.211,0.998-0.986,1.493-1.959,1.296c-0.865-0.177-1.353-0.969-1.219-1.925c0.391-2.802,0.776-5.603,1.147-8.408
			c0.075-0.562,0.036-1.14,0.104-1.702c0.123-0.995,0.821-1.556,1.777-1.474C109.152,109.827,109.758,110.548,109.74,111.472z"/>
		<path fill-rule="evenodd" clip-rule="evenodd" fill="#FFFFFF" d="M92.629,125.009c-1.106-0.001-1.789-0.986-1.518-2.115
			c0.508-2.11,0.992-4.226,1.464-6.344c0.133-0.591,0.174-1.201,0.278-1.798c0.158-0.901,0.902-1.447,1.791-1.334
			c0.85,0.108,1.5,0.891,1.395,1.763c-0.357,2.966-0.962,5.882-1.866,8.732C93.943,124.639,93.388,125.01,92.629,125.009z"/>
	</g>
</g>
<g>
</g>
<g>
</g>
<g>
</g>
<g>
</g>
<g>
</g>
<g>
</g>
</svg>
