<?xml version="1.0" encoding="utf-8"?>
<!-- Generator: Adobe Illustrator 16.0.0, SVG Export Plug-In . SVG Version: 6.00 Build 0)  -->
<!DOCTYPE svg PUBLIC "-//W3C//DTD SVG 1.1//EN" "http://www.w3.org/Graphics/SVG/1.1/DTD/svg11.dtd">
<svg version="1.1" id="Layer_1" xmlns="http://www.w3.org/2000/svg" xmlns:xlink="http://www.w3.org/1999/xlink" x="0px" y="0px"
	 width="481.59px" height="387.001px" viewBox="0 0 481.59 387.001" enable-background="new 0 0 481.59 387.001"
	 xml:space="preserve">
<g>
	<path opacity="0.2" enable-background="new    " d="M481.469,95.229c0,35.486-28.775,64.257-64.264,64.257H98.758
		c-35.487,0-64.264-28.771-64.264-64.257l0,0c0-35.494,28.776-64.264,64.264-64.264h318.448
		C452.692,30.965,481.469,59.734,481.469,95.229L481.469,95.229z"/>
	<path opacity="0.2" fill="#FFFFFF" enable-background="new    " d="M479.993,93.038c0,35.491-28.775,64.263-64.265,64.263H97.281
		c-20.795,0-39.274-9.889-51.021-25.209c11.626,16.559,30.854,27.395,52.62,27.395h318.447c35.488,0,64.264-28.771,64.264-64.263
		c0-14.691-4.941-28.223-13.242-39.048C475.678,66.611,479.993,79.318,479.993,93.038z"/>
	
		<linearGradient id="SVGID_1_" gradientUnits="userSpaceOnUse" x1="96.9233" y1="154.4033" x2="96.9233" y2="39.5728" gradientTransform="matrix(1 0 0 -1 -0.0449 192.7598)">
		<stop  offset="0" style="stop-color:#1CB6EA"/>
		<stop  offset="1" style="stop-color:#3E23CA"/>
	</linearGradient>
	<circle fill="url(#SVGID_1_)" cx="96.878" cy="95.225" r="50.619"/>
	<g opacity="0.6">
		
			<image overflow="visible" enable-background="new    " width="195" height="194" xlink:href="../C274CBF3.png"  transform="matrix(0.9949 0 0 0.9949 9.765625e-004 -9.765625e-004)">
		</image>
	</g>
	<g>
		<path fill="#FFFFFF" d="M103.37,108.25c0.078,5.146-0.572,10.204-1.821,15.191c-0.183,0.727-0.447,1.385-1.276,1.572
			c-1.275,0.286-2.252-0.718-1.968-2.02c0.337-1.546,0.726-3.082,1.001-4.639c0.708-3.998,0.979-8.026,0.764-12.092
			c-0.201-3.791-0.769-7.518-1.694-11.195c-0.19-0.752-0.461-1.434-1.269-1.738c-0.645-0.244-1.229-0.146-1.759,0.266
			c-0.524,0.406-0.861,0.95-0.734,1.617c0.248,1.295,0.6,2.57,0.853,3.864c0.704,3.62,1.036,7.275,0.928,10.965
			c-0.026,0.902-0.717,1.521-1.634,1.508c-0.891-0.015-1.532-0.676-1.573-1.582c-0.095-2.13-0.073-4.275-0.341-6.385
			c-0.317-2.484-0.831-4.95-1.372-7.399c-0.607-2.752,1.262-5.598,4.015-6.109c2.641-0.494,5.25,1.212,5.927,3.859
			C102.613,98.639,103.291,103.4,103.37,108.25z"/>
		<path fill="#FFFFFF" d="M116.307,109.369c-0.202,2.561-0.41,5.477-0.677,8.389c-0.093,1.01-0.874,1.588-1.78,1.467
			c-0.97-0.127-1.496-0.9-1.42-1.949c0.199-2.752,0.48-5.506,0.517-8.262c0.066-5.16-0.556-10.261-1.712-15.295
			c-0.508-2.203-1.047-4.388-2.278-6.328c-2.373-3.746-5.738-6.01-10.106-6.794c-2.366-0.425-4.678-0.199-6.961,0.515
			c-0.829,0.26-1.518,0.021-1.938-0.625c-0.382-0.59-0.359-1.382,0.126-1.89c0.23-0.241,0.551-0.443,0.869-0.544
			c5.139-1.613,10.062-1.074,14.688,1.667c4.571,2.709,7.24,6.799,8.44,11.931c0.77,3.294,1.424,6.604,1.741,9.969
			C116.047,104.072,116.134,106.537,116.307,109.369z"/>
		<path fill="#FFFFFF" d="M96.555,70.991c5.895,0.112,11.23,2.07,15.801,6.042c0.841,0.73,0.947,1.688,0.296,2.419
			c-0.622,0.7-1.636,0.7-2.454-0.014c-2.697-2.354-5.779-3.959-9.285-4.707c-5.4-1.152-10.507-0.332-15.227,2.524
			c-5.031,3.043-8.209,7.494-9.523,13.22c-0.338,1.475-0.398,3.016-0.538,4.529c-0.081,0.903-0.647,1.588-1.475,1.639
			c-0.856,0.054-1.626-0.482-1.722-1.285c-0.066-0.562-0.047-1.142-0.008-1.71C73.074,84,79.179,75.793,88.157,72.496
			C90.823,71.517,93.58,71.048,96.555,70.991z"/>
		<path fill="#FFFFFF" d="M95.749,83.578c6.085,0.004,10.688,3.718,11.94,8.977c0.729,3.054,1.351,6.123,1.701,9.24
			c0.166,1.48,0.256,2.969,0.334,4.457c0.049,0.948-0.607,1.678-1.479,1.749c-0.867,0.071-1.597-0.481-1.709-1.433
			c-0.151-1.276-0.19-2.564-0.313-3.846c-0.328-3.459-0.922-6.875-1.922-10.203c-1.091-3.623-4.729-6.007-8.532-5.711
			c-3.958,0.309-7.228,3.592-7.566,7.51c-0.117,1.339,0.184,2.588,0.488,3.853c0.24,0.993-0.223,1.895-1.084,2.092
			c-0.994,0.228-1.841-0.306-2.039-1.342c-0.227-1.186-0.531-2.377-0.573-3.573c-0.128-3.595,1.241-6.601,3.931-8.964
			C91.061,84.511,93.6,83.607,95.749,83.578z"/>
		<path fill="#FFFFFF" d="M80.596,120.486c-1.066-0.014-1.76-0.971-1.521-2.086c0.308-1.438,0.664-2.871,0.897-4.322
			c0.462-2.88,0.61-5.789,0.185-8.682c-0.362-2.461-0.93-4.893-1.349-7.348c-0.699-4.111-0.021-8.003,1.985-11.661
			c1.222-2.228,2.872-4.084,4.876-5.632c0.524-0.405,1.077-0.639,1.74-0.44c0.65,0.195,1.017,0.671,1.112,1.313
			c0.102,0.679-0.21,1.208-0.758,1.607c-1.768,1.286-3.162,2.897-4.204,4.821c-1.887,3.495-2.278,7.159-1.264,10.989
			c1.196,4.524,1.636,9.119,1.058,13.771c-0.27,2.166-0.758,4.305-1.184,6.447C82.019,120.021,81.338,120.495,80.596,120.486z"/>
		<path fill="#FFFFFF" d="M96.415,64.889c2.496-0.028,4.953,0.275,7.369,0.896c0.961,0.246,1.524,1.074,1.317,1.914
			c-0.213,0.86-1.041,1.48-2.072,1.212c-3.096-0.802-6.245-1.006-9.417-0.664c-4.483,0.48-8.608,1.985-12.343,4.526
			c-3.259,2.218-5.892,5.03-7.942,8.395c-0.561,0.919-1.563,1.157-2.353,0.598c-0.709-0.5-0.906-1.417-0.435-2.205
			c1.835-3.059,4.131-5.717,6.905-7.963c3.803-3.077,8.106-5.127,12.891-6.084c1.992-0.398,4.038-0.528,6.061-0.78
			C96.402,64.785,96.407,64.838,96.415,64.889z"/>
		<path fill="#FFFFFF" d="M122.351,107.348c0,0.92,0.021,1.842-0.006,2.764c-0.022,0.842-0.515,1.465-1.231,1.634
			c-0.694,0.164-1.436-0.104-1.756-0.729c-0.169-0.326-0.254-0.736-0.25-1.106c0.049-3.854-0.19-7.688-0.744-11.5
			c-0.496-3.395-1.158-6.761-2.202-10.035c-0.563-1.76-1.41-3.386-2.423-4.926c-0.574-0.874-0.429-1.841,0.362-2.376
			c0.77-0.521,1.741-0.274,2.33,0.596c1.882,2.774,3.063,5.846,3.729,9.109c0.594,2.927,1.188,5.86,1.599,8.815
			c0.356,2.563,0.45,5.166,0.66,7.751C122.396,107.343,122.373,107.346,122.351,107.348z"/>
		<path fill="#FFFFFF" d="M124.013,89.279c-0.79-0.034-1.306-0.44-1.532-1.266c-0.64-2.33-1.553-4.544-2.789-6.619
			c-2.723-4.572-6.451-8.066-11.214-10.452c-0.776-0.389-1.131-0.984-1.032-1.766c0.082-0.657,0.603-1.252,1.287-1.328
			c0.362-0.04,0.786,0.025,1.111,0.184c3.612,1.767,6.73,4.181,9.377,7.21c3.009,3.444,5.077,7.387,6.352,11.773
			C125.965,88.368,124.955,89.361,124.013,89.279z"/>
		<path fill="#FFFFFF" d="M90.092,109.098c-0.089,4.476-0.779,8.838-2.094,13.104c-0.244,0.796-0.803,1.233-1.556,1.25
			c-0.685,0.017-1.33-0.384-1.518-1.054c-0.098-0.354-0.108-0.781-0.003-1.129c0.857-2.826,1.418-5.709,1.69-8.649
			c0.264-2.851,0.247-5.695-0.134-8.534c-0.158-1.173,0.232-1.927,1.169-2.177c0.959-0.257,1.916,0.392,2.005,1.416
			C89.82,105.247,89.948,107.173,90.092,109.098z"/>
		<path fill="#FFFFFF" d="M66.219,95.001c0.074-2.632,0.359-5.235,1.079-7.775c0.212-0.75,0.872-1.228,1.585-1.206
			c0.688,0.018,1.321,0.49,1.49,1.182c0.069,0.289,0.074,0.629,0,0.916c-1.226,4.626-1.208,9.25-0.014,13.876
			c0.235,0.912-0.226,1.813-1.038,2.021c-0.942,0.245-1.804-0.231-2.058-1.178C66.574,100.271,66.265,97.654,66.219,95.001z"/>
		<path fill="#FFFFFF" d="M77.548,108.965c-0.191,1.824-0.354,3.653-0.585,5.473c-0.141,1.115-0.962,1.701-1.957,1.502
			c-0.918-0.184-1.402-1.039-1.219-2.088c0.726-4.151,0.527-8.265-0.51-12.346c-0.14-0.549-0.286-1.107-0.319-1.666
			c-0.049-0.771,0.533-1.41,1.29-1.546c0.747-0.134,1.59,0.32,1.793,1.05C76.913,102.486,77.482,105.677,77.548,108.965z"/>
		<path fill="#FFFFFF" d="M109.74,111.473c-0.14,3.533-0.555,7.034-1.289,10.494c-0.211,0.998-0.986,1.493-1.959,1.297
			c-0.865-0.178-1.353-0.97-1.219-1.926c0.391-2.802,0.776-5.604,1.147-8.408c0.075-0.562,0.036-1.14,0.104-1.701
			c0.123-0.996,0.821-1.557,1.777-1.475C109.152,109.827,109.758,110.548,109.74,111.473z"/>
		<path fill="#FFFFFF" d="M92.629,125.009c-1.106-0.001-1.789-0.985-1.518-2.114c0.508-2.11,0.992-4.227,1.464-6.345
			c0.133-0.591,0.174-1.2,0.278-1.798c0.158-0.9,0.902-1.447,1.791-1.334c0.85,0.107,1.5,0.891,1.395,1.764
			c-0.357,2.965-0.962,5.881-1.866,8.731C93.943,124.639,93.388,125.01,92.629,125.009z"/>
	</g>
</g>
<g>
	<path opacity="0.2" enable-background="new    " d="M481.455,288.53c0,35.486-28.775,64.258-64.264,64.258H98.743
		c-35.487,0-64.264-28.771-64.264-64.258l0,0c0-35.494,28.776-64.264,64.264-64.264h318.448
		C452.677,224.267,481.455,253.036,481.455,288.53L481.455,288.53z"/>
	<path opacity="0.2" fill="#FFFFFF" enable-background="new    " d="M479.978,286.34c0,35.491-28.775,64.263-64.265,64.263H97.266
		c-20.795,0-39.274-9.889-51.021-25.209c11.626,16.559,30.854,27.395,52.62,27.395h318.447c35.488,0,64.264-28.771,64.264-64.264
		c0-14.69-4.941-28.223-13.242-39.048C475.664,259.913,479.978,272.62,479.978,286.34z"/>
	
		<linearGradient id="SVGID_2_" gradientUnits="userSpaceOnUse" x1="96.9087" y1="-38.8989" x2="96.9087" y2="-153.7294" gradientTransform="matrix(1 0 0 -1 -0.0449 192.7598)">
		<stop  offset="0" style="stop-color:#1CB6EA"/>
		<stop  offset="1" style="stop-color:#3E23CA"/>
	</linearGradient>
	<circle fill="url(#SVGID_2_)" cx="96.863" cy="288.526" r="50.619"/>
	<g>
		
			<image overflow="visible" enable-background="new    " width="194" height="194" xlink:href="../2E1E51D4.png"  transform="matrix(1 0 0 1 9.765625e-004 193.001)">
		</image>
	</g>
	<g>
		<path fill="#FFFFFF" d="M103.355,301.552c0.078,5.146-0.572,10.204-1.821,15.191c-0.183,0.727-0.447,1.385-1.276,1.572
			c-1.275,0.286-2.252-0.718-1.968-2.02c0.337-1.546,0.726-3.082,1.001-4.639c0.708-3.998,0.979-8.026,0.764-12.092
			c-0.201-3.791-0.769-7.518-1.694-11.195c-0.19-0.752-0.461-1.434-1.269-1.737c-0.645-0.244-1.229-0.146-1.759,0.267
			c-0.524,0.405-0.861,0.949-0.734,1.616c0.248,1.295,0.6,2.57,0.853,3.864c0.704,3.62,1.036,7.275,0.928,10.965
			c-0.026,0.902-0.717,1.521-1.634,1.508c-0.891-0.015-1.532-0.676-1.573-1.582c-0.095-2.13-0.073-4.275-0.341-6.385
			c-0.317-2.484-0.831-4.95-1.372-7.398c-0.607-2.752,1.262-5.599,4.015-6.109c2.641-0.494,5.25,1.212,5.927,3.859
			C102.598,291.94,103.276,296.702,103.355,301.552z"/>
		<path fill="#FFFFFF" d="M116.292,302.671c-0.202,2.561-0.41,5.477-0.677,8.389c-0.093,1.01-0.874,1.588-1.78,1.467
			c-0.97-0.127-1.496-0.9-1.42-1.949c0.199-2.752,0.48-5.506,0.517-8.262c0.066-5.16-0.556-10.261-1.712-15.295
			c-0.508-2.203-1.047-4.388-2.278-6.328c-2.373-3.746-5.738-6.01-10.106-6.793c-2.366-0.426-4.678-0.199-6.961,0.514
			c-0.829,0.261-1.518,0.021-1.938-0.625c-0.382-0.59-0.359-1.381,0.126-1.889c0.23-0.242,0.551-0.443,0.869-0.545
			c5.139-1.613,10.062-1.074,14.688,1.668c4.571,2.709,7.24,6.799,8.44,11.93c0.77,3.295,1.424,6.604,1.741,9.97
			C116.032,297.374,116.119,299.839,116.292,302.671z"/>
		<path fill="#FFFFFF" d="M96.541,264.293c5.895,0.112,11.23,2.069,15.801,6.042c0.841,0.73,0.947,1.688,0.296,2.419
			c-0.622,0.7-1.636,0.7-2.454-0.015c-2.697-2.354-5.779-3.959-9.285-4.707c-5.4-1.151-10.507-0.332-15.227,2.524
			c-5.031,3.043-8.209,7.494-9.523,13.22c-0.338,1.476-0.398,3.017-0.538,4.529c-0.081,0.903-0.647,1.588-1.475,1.639
			c-0.856,0.055-1.626-0.481-1.722-1.285c-0.066-0.562-0.047-1.142-0.008-1.709c0.654-9.648,6.759-17.855,15.737-21.152
			C90.809,264.819,93.565,264.35,96.541,264.293z"/>
		<path fill="#FFFFFF" d="M95.734,276.88c6.085,0.004,10.688,3.718,11.94,8.977c0.729,3.055,1.351,6.123,1.701,9.24
			c0.166,1.48,0.256,2.969,0.334,4.457c0.049,0.948-0.607,1.678-1.479,1.749c-0.867,0.071-1.597-0.481-1.709-1.433
			c-0.151-1.276-0.19-2.564-0.313-3.846c-0.328-3.459-0.922-6.875-1.922-10.203c-1.091-3.623-4.729-6.006-8.532-5.711
			c-3.958,0.31-7.228,3.592-7.566,7.51c-0.117,1.34,0.184,2.589,0.488,3.854c0.24,0.993-0.223,1.895-1.084,2.092
			c-0.994,0.228-1.841-0.306-2.039-1.342c-0.227-1.186-0.531-2.377-0.573-3.572c-0.128-3.596,1.241-6.602,3.931-8.965
			C91.046,277.813,93.585,276.909,95.734,276.88z"/>
		<path fill="#FFFFFF" d="M80.582,313.788c-1.066-0.014-1.76-0.971-1.521-2.086c0.308-1.438,0.664-2.871,0.897-4.322
			c0.462-2.88,0.61-5.789,0.185-8.682c-0.362-2.461-0.93-4.893-1.349-7.348c-0.699-4.111-0.021-8.003,1.985-11.66
			c1.222-2.229,2.872-4.084,4.876-5.633c0.524-0.404,1.077-0.639,1.74-0.439c0.65,0.194,1.017,0.67,1.112,1.313
			c0.102,0.68-0.21,1.208-0.758,1.607c-1.768,1.285-3.162,2.896-4.204,4.82c-1.887,3.495-2.278,7.159-1.264,10.989
			c1.196,4.524,1.636,9.119,1.058,13.771c-0.27,2.166-0.758,4.305-1.184,6.447C82.004,313.323,81.323,313.797,80.582,313.788z"/>
		<path fill="#FFFFFF" d="M96.4,258.19c2.496-0.027,4.953,0.275,7.369,0.896c0.961,0.246,1.524,1.074,1.317,1.914
			c-0.213,0.859-1.041,1.48-2.072,1.212c-3.096-0.802-6.245-1.006-9.417-0.664c-4.483,0.479-8.608,1.985-12.343,4.526
			c-3.259,2.218-5.892,5.029-7.942,8.395c-0.561,0.919-1.563,1.157-2.353,0.598c-0.709-0.5-0.906-1.416-0.435-2.205
			c1.835-3.059,4.131-5.717,6.905-7.963c3.803-3.076,8.106-5.127,12.891-6.084c1.992-0.397,4.038-0.527,6.061-0.779
			C96.387,258.087,96.393,258.14,96.4,258.19z"/>
		<path fill="#FFFFFF" d="M122.336,300.649c0,0.92,0.021,1.842-0.006,2.764c-0.022,0.842-0.515,1.465-1.231,1.634
			c-0.694,0.164-1.436-0.104-1.756-0.729c-0.169-0.326-0.254-0.736-0.25-1.106c0.049-3.854-0.19-7.688-0.744-11.5
			c-0.496-3.396-1.158-6.761-2.202-10.035c-0.563-1.761-1.41-3.386-2.423-4.926c-0.574-0.874-0.429-1.841,0.362-2.376
			c0.77-0.521,1.741-0.274,2.33,0.596c1.882,2.773,3.063,5.846,3.729,9.109c0.594,2.927,1.188,5.859,1.599,8.814
			c0.356,2.563,0.45,5.166,0.66,7.751C122.381,300.645,122.358,300.647,122.336,300.649z"/>
		<path fill="#FFFFFF" d="M123.999,282.581c-0.79-0.034-1.306-0.44-1.532-1.266c-0.64-2.33-1.553-4.545-2.789-6.619
			c-2.723-4.572-6.451-8.066-11.214-10.453c-0.776-0.389-1.131-0.983-1.032-1.766c0.082-0.656,0.603-1.252,1.287-1.328
			c0.362-0.039,0.786,0.025,1.111,0.185c3.612,1.767,6.73,4.181,9.377,7.21c3.009,3.443,5.077,7.387,6.352,11.773
			C125.95,281.67,124.94,282.663,123.999,282.581z"/>
		<path fill="#FFFFFF" d="M90.077,302.399c-0.089,4.476-0.779,8.838-2.094,13.104c-0.244,0.796-0.803,1.233-1.556,1.25
			c-0.685,0.017-1.33-0.384-1.518-1.054c-0.098-0.354-0.108-0.781-0.003-1.129c0.857-2.826,1.418-5.709,1.69-8.649
			c0.264-2.851,0.247-5.695-0.134-8.534c-0.158-1.173,0.232-1.927,1.169-2.177c0.959-0.257,1.916,0.392,2.005,1.416
			C89.805,298.549,89.934,300.475,90.077,302.399z"/>
		<path fill="#FFFFFF" d="M66.205,288.303c0.074-2.632,0.359-5.235,1.079-7.774c0.212-0.75,0.872-1.229,1.585-1.207
			c0.688,0.019,1.321,0.49,1.49,1.183c0.069,0.289,0.074,0.629,0,0.916c-1.226,4.626-1.208,9.25-0.014,13.876
			c0.235,0.912-0.226,1.813-1.038,2.021c-0.942,0.245-1.804-0.231-2.058-1.178C66.56,293.573,66.25,290.956,66.205,288.303z"/>
		<path fill="#FFFFFF" d="M77.533,302.267c-0.191,1.824-0.354,3.653-0.585,5.473c-0.141,1.115-0.962,1.701-1.957,1.502
			c-0.918-0.184-1.402-1.039-1.219-2.088c0.726-4.151,0.527-8.265-0.51-12.346c-0.14-0.549-0.286-1.107-0.319-1.666
			c-0.049-0.771,0.533-1.41,1.29-1.546c0.747-0.134,1.59,0.32,1.793,1.05C76.898,295.788,77.467,298.979,77.533,302.267z"/>
		<path fill="#FFFFFF" d="M109.726,304.774c-0.14,3.533-0.555,7.034-1.289,10.494c-0.211,0.998-0.986,1.493-1.959,1.297
			c-0.865-0.178-1.353-0.97-1.219-1.926c0.391-2.802,0.776-5.604,1.147-8.408c0.075-0.562,0.036-1.14,0.104-1.701
			c0.123-0.996,0.821-1.557,1.777-1.475C109.137,303.129,109.743,303.85,109.726,304.774z"/>
		<path fill="#FFFFFF" d="M92.614,318.311c-1.106-0.001-1.789-0.985-1.518-2.114c0.508-2.11,0.992-4.227,1.464-6.345
			c0.133-0.591,0.174-1.2,0.278-1.798c0.158-0.9,0.902-1.447,1.791-1.334c0.85,0.107,1.5,0.891,1.395,1.764
			c-0.357,2.965-0.962,5.881-1.866,8.731C93.928,317.94,93.374,318.312,92.614,318.311z"/>
	</g>
</g>
</svg>
