<?xml version="1.0" encoding="utf-8"?>
<!-- Generator: Adobe Illustrator 16.0.0, SVG Export Plug-In . SVG Version: 6.00 Build 0)  -->
<!DOCTYPE svg PUBLIC "-//W3C//DTD SVG 1.1//EN" "http://www.w3.org/Graphics/SVG/1.1/DTD/svg11.dtd">
<svg version="1.1" id="Layer_1" xmlns="http://www.w3.org/2000/svg" xmlns:xlink="http://www.w3.org/1999/xlink" x="0px" y="0px"
	 width="208.13px" height="208.13px" viewBox="0 0 208.13 208.13" enable-background="new 0 0 208.13 208.13" xml:space="preserve">
<g>
	<g>
		<linearGradient id="SVGID_1_" gradientUnits="userSpaceOnUse" x1="130.4033" y1="148.7715" x2="101.7373" y2="30.1055">
			<stop  offset="0" style="stop-color:#A432FF"/>
			<stop  offset="1" style="stop-color:#455AFF"/>
		</linearGradient>
		<path fill-rule="evenodd" clip-rule="evenodd" fill="url(#SVGID_1_)" d="M75.302,32.586c1.919-0.125,3.692,0.676,5.399,1.682
			c15.79,9.299,31.583,18.593,47.367,27.902c16.335,9.633,32.661,19.28,48.991,28.923c2.269,1.34,4.575,2.62,6.794,4.039
			c6.589,4.218,6.456,13.913-0.279,17.92c-10.878,6.472-21.802,12.864-32.705,19.293c-12.518,7.381-25.032,14.769-37.553,22.146
			c-10.25,6.04-20.498,12.083-30.768,18.089c-1.608,0.939-3.249,1.979-5.014,2.464c-5.505,1.515-11.088-2.318-12.117-7.95
			c-0.454-2.484,0.203-4.754,0.811-7.058c2.298-8.717,4.625-17.425,6.954-26.133c2.475-9.25,4.923-18.508,7.479-27.735
			c0.502-1.813,0.229-3.45-0.23-5.159c-2.296-8.555-4.569-17.116-6.862-25.673c-2.664-9.941-5.329-19.883-8.014-29.818
			C63.825,39.11,68.667,32.578,75.302,32.586z M123.6,107.183c-0.563,0-1.036,0-1.508,0c-11.32,0-22.64,0.002-33.959-0.004
			c-0.66,0-1.188-0.032-1.424,0.854c-3.843,14.461-7.725,28.911-11.596,43.363c-1.146,4.277-2.318,8.549-3.416,12.839
			c-0.438,1.714,0.165,3.178,1.566,4.234c1.221,0.922,2.51,0.811,3.803,0.047c12.343-7.29,24.69-14.572,37.036-21.856
			c12.898-7.61,25.795-15.224,38.694-22.832c9.148-5.396,18.308-10.776,27.447-16.188c2.775-1.644,2.767-5.56,0.005-7.255
			c-1.838-1.128-3.715-2.191-5.571-3.287c-15.063-8.89-30.123-17.783-45.186-26.671c-14.239-8.402-28.481-16.799-42.723-25.197
			c-3.232-1.906-6.46-3.822-9.705-5.708c-1.809-1.052-3.291-0.8-4.559,0.783c-0.845,1.055-1.117,2.268-0.759,3.607
			c1.44,5.396,2.86,10.799,4.306,16.194c3.509,13.106,7.045,26.205,10.512,39.322c0.295,1.118,0.733,1.404,1.847,1.399
			c11.239-0.045,22.479-0.027,33.719-0.027c0.469,0,0.938,0,1.47,0C123.6,102.944,123.6,104.968,123.6,107.183z"/>
		<linearGradient id="SVGID_2_" gradientUnits="userSpaceOnUse" x1="65.0742" y1="164.5537" x2="36.4082" y2="45.8877">
			<stop  offset="0" style="stop-color:#A432FF"/>
			<stop  offset="1" style="stop-color:#455AFF"/>
		</linearGradient>
		<path fill-rule="evenodd" clip-rule="evenodd" fill="url(#SVGID_2_)" d="M58.551,87.59c-0.455,0.026-0.885,0.071-1.314,0.072
			c-7.67,0.004-15.34-0.019-23.009,0.026c-1.115,0.007-1.574-0.235-1.495-1.44c0.104-1.58,0.026-3.173,0.026-4.834
			c8.667,0,17.192,0,25.792,0C58.551,83.464,58.551,85.479,58.551,87.59z"/>
		<linearGradient id="SVGID_3_" gradientUnits="userSpaceOnUse" x1="66.6836" y1="164.1641" x2="38.0176" y2="45.4981">
			<stop  offset="0" style="stop-color:#A432FF"/>
			<stop  offset="1" style="stop-color:#455AFF"/>
		</linearGradient>
		<path fill-rule="evenodd" clip-rule="evenodd" fill="url(#SVGID_3_)" d="M39.285,107.104c0-2.128,0-4.121,0-6.208
			c8.576,0,17.108,0,25.73,0c0,2.025,0,4.077,0,6.208C56.469,107.104,47.938,107.104,39.285,107.104z"/>
		<linearGradient id="SVGID_4_" gradientUnits="userSpaceOnUse" x1="56.1436" y1="166.7109" x2="27.4775" y2="48.0449">
			<stop  offset="0" style="stop-color:#A432FF"/>
			<stop  offset="1" style="stop-color:#455AFF"/>
		</linearGradient>
		<path fill-rule="evenodd" clip-rule="evenodd" fill="url(#SVGID_4_)" d="M58.551,126.574c-8.569,0-17.09,0-25.697,0
			c0-2.072,0-4.084,0-6.184c8.574,0,17.1,0,25.697,0C58.551,122.469,58.551,124.48,58.551,126.574z"/>
		<linearGradient id="SVGID_5_" gradientUnits="userSpaceOnUse" x1="57.1533" y1="166.4668" x2="28.4873" y2="47.8008">
			<stop  offset="0" style="stop-color:#A432FF"/>
			<stop  offset="1" style="stop-color:#455AFF"/>
		</linearGradient>
		<path fill-rule="evenodd" clip-rule="evenodd" fill="url(#SVGID_5_)" d="M19.68,61.857c0.606,0,1.038,0,1.469,0
			c7.679,0,15.358,0.026,23.037-0.027c1.195-0.009,1.508,0.371,1.441,1.497c-0.088,1.509-0.021,3.027-0.021,4.683
			c-0.518,0.036-0.934,0.091-1.349,0.092c-7.759,0.005-15.519-0.02-23.276,0.029c-1.099,0.006-1.367-0.356-1.32-1.375
			C19.734,65.17,19.68,63.577,19.68,61.857z"/>
		<linearGradient id="SVGID_6_" gradientUnits="userSpaceOnUse" x1="39.3447" y1="170.7676" x2="10.6787" y2="52.1016">
			<stop  offset="0" style="stop-color:#A432FF"/>
			<stop  offset="1" style="stop-color:#455AFF"/>
		</linearGradient>
		<path fill-rule="evenodd" clip-rule="evenodd" fill="url(#SVGID_6_)" d="M32.68,139.908c3.876,0,7.752,0.034,11.627-0.022
			c1.027-0.016,1.32,0.338,1.271,1.306c-0.066,1.274-0.045,2.557-0.013,3.834c0.02,0.791-0.237,1.159-1.093,1.157
			c-7.871-0.019-15.741-0.017-23.612,0c-0.811,0.002-1.163-0.273-1.139-1.112c0.039-1.316,0.046-2.638-0.01-3.954
			c-0.039-0.919,0.258-1.242,1.223-1.229C24.849,139.939,28.765,139.908,32.68,139.908z"/>
	</g>
	<linearGradient id="SVGID_7_" gradientUnits="userSpaceOnUse" x1="84.4248" y1="79.5293" x2="118.8271" y2="79.5293">
		<stop  offset="0" style="stop-color:#A432FF"/>
		<stop  offset="1" style="stop-color:#455AFF"/>
	</linearGradient>
	<path opacity="0.5" fill-rule="evenodd" clip-rule="evenodd" fill="url(#SVGID_7_)" d="M84.425,66.115
		c0.244-0.327,0.485-0.985,0.849-1.062c0.589-0.123,1.412-0.068,1.863,0.271c1.85,1.393,3.598,2.919,5.379,4.4
		c8.355,6.952,16.708,13.906,25.061,20.86c0.307,0.256,0.725,0.471,0.874,0.802c0.226,0.502,0.504,1.204,0.313,1.613
		c-0.217,0.466-0.909,0.967-1.421,0.996c-1.993,0.113-3.995,0.047-5.995,0.047c-5.638,0-11.276-0.027-16.914,0.02
		c-1.269,0.011-1.886-0.524-2.229-1.683c-2.461-8.313-4.949-16.618-7.427-24.927C84.664,67.073,84.574,66.685,84.425,66.115z"/>
	<linearGradient id="SVGID_8_" gradientUnits="userSpaceOnUse" x1="84.46" y1="128.4043" x2="118.9092" y2="128.4043">
		<stop  offset="0" style="stop-color:#A432FF"/>
		<stop  offset="1" style="stop-color:#455AFF"/>
	</linearGradient>
	<path opacity="0.5" fill-rule="evenodd" clip-rule="evenodd" fill="url(#SVGID_8_)" d="M118.909,115.61
		c-0.242,0.29-0.597,0.863-1.086,1.275c-3.878,3.266-7.784,6.499-11.678,9.747c-6.011,5.014-12.013,10.037-18.034,15.038
		c-0.816,0.678-1.571,1.871-2.868,1.061c-1.351-0.845-0.614-2.026-0.286-3.114c2.412-7.989,4.819-15.979,7.22-23.972
		c0.519-1.723,0.646-1.84,2.407-1.84c7.474-0.002,14.946-0.003,22.419,0.001C118.285,113.808,118.917,114.302,118.909,115.61z"/>
</g>
<g>
</g>
<g>
</g>
<g>
</g>
<g>
</g>
<g>
</g>
<g>
</g>
</svg>
